<?xml version="1.0" encoding="utf-8"?>
<!-- Generator: Adobe Illustrator 21.0.0, SVG Export Plug-In . SVG Version: 6.00 Build 0)  -->
<svg version="1.1" id="Livello_1" xmlns="http://www.w3.org/2000/svg" xmlns:xlink="http://www.w3.org/1999/xlink" x="0px" y="0px"
	 viewBox="0 0 772 250" style="enable-background:new 0 0 772 250;" xml:space="preserve">
<style type="text/css">
	.st0{fill:#D9D9D9;}
	.st1{fill:#FDC300;}
	.st2{fill:#F18700;}
	.st3{fill:#FFFFFF;}
</style>
<rect class="st0" width="772" height="250"/>
<g>
	<circle class="st1" cx="643.8" cy="125" r="98"/>
	<path class="st2" d="M545.7,125c0,23.2,8.1,44.5,21.6,61.3h133.1V75.3H559.3C550.7,89.8,545.7,106.8,545.7,125z"/>
	<path class="st3" d="M651.3,211.4h-5.8h-23.2V194h81.2c3.2,0,5.8-2.6,5.8-5.8V72.2c0-3.2-2.6-5.8-5.8-5.8c0,0,0,0,0,0H565.2
		c-2.7,3.7-5.2,7.6-7.5,11.6h140v104.5H564.3c3,4.1,6.3,8,9.9,11.6h36.5v17.4h-13.2c13.8,7.4,29.6,11.6,46.3,11.6
		c2.5,0,5-0.1,7.5-0.3V211.4z"/>
	<path class="st3" d="M567.1,161.3c0,0,0.1-0.1,0.1-0.1l38.3-27.8l6.8,21.4c0.6,2,2.7,3,4.7,2.4c0.5-0.2,1-0.5,1.5-0.9l41.5-40.2
		l3.4,3.2c1.1,1,2.7,0.9,3.7-0.1c0.3-0.3,0.5-0.7,0.6-1.2l2-8.3l2-8.3c0.3-1.4-0.5-2.8-2-3.2c0,0,0,0-0.1,0l0,0c-0.1,0-0.2,0-0.3,0
		c-0.3,0-0.7,0-1,0.1l-8.2,2.5l-8.2,2.5c-1.4,0.4-2.2,1.9-1.8,3.3c0.1,0.4,0.4,0.8,0.7,1.2l3.6,3.4l-37,35.8l-6.5-20.6
		c-0.6-2-2.7-3-4.7-2.4c-0.4,0.1-0.7,0.3-1.1,0.5l-42.4,30.8c-1.7,1.2-2.1,3.5-0.9,5.2C563.1,162.1,565.4,162.5,567.1,161.3z"/>
</g>
<g>
	<path d="M516.1,110.2c-2.5-1.3-5.7-0.2-6.8,2.5c-0.2,0.2-8.7,17.7-25.3,19.4c-0.6-8.1-4.3-16-4.3-23.8c0-7,3.8-15.8,9.1-15.8
		c11.7,0,1.5,10.8,10.2,10.8c3.6,0,5.7-3,5.7-7.2c0-7.9-4.3-14.3-16.6-14.3c-10.6,0-19.1,14.5-19.1,26.2c0,10.4,4.1,17.7,4.1,27.5
		c0,5.3-1.5,9.2-6.4,9.2c-7.7,0-12.6-9.8-12.6-15.1c0-2.6,0.6-5.1,1.5-7.3c0.7-1.2,1.3-2.3,1.8-3.4c0.7-0.9,1.4-1.8,2.1-2.5
		c1.9-1.7,6.2-3.2,6.2-7.5c0-3-2.8-5.1-5.5-5.1c-2.8,0-5.9,1.9-8.7,4.9c-1.3,1-2.3,2.5-3.1,4c-1.1,1.7-2.1,3.6-3,5.5
		c-4.3,7.4-7.4,11.3-12.6,18.4c-0.4,0.6-4.1,4.3-5.5,4c-7.4-1.7,11.3-55.3,14-58.5c6.4-1.1,10.8-0.6,12.3-0.9c4-1.1,4.9-7,1.7-9.4
		c-2.3-1.9-8.3-0.8-10-0.6c3-7.9,4.9-12.3,5.7-14c1.7-3.6,4.7-13.4-3.2-12.6c-6.4,0.6-10.6,16.2-12.6,22.4c-0.4,1.3-1.3,4.5-2.3,4.9
		c-1.3,0.8-16.2,0.8-20,2.6c-3.8,1.9-4,8.5,0.8,10c1.9,0.4,7.5-0.8,15.1-1.1c-2.6,6.7-6.6,17.6-9.5,28.5c-0.8,0.9-1.5,1.8-2.2,2.8
		c-6.2,8.9-15.8,19.4-22.8,24.1c1.9-13,7.4-23.6,13.4-32.8c1.9-2.8,5.8-7.5,5.8-10.6c0-3.4-2.3-5.5-5.1-5.5c-5.1,0-7.4,8.7-10.2,8.7
		c-0.2,0-1.3-1.7-1.5-2.3c-2.8-3.8-7.4-5.7-12.3-5.7c-11.8,0-24.8,11.8-31.1,26.4c-4.6,8.1-7.7,12-13.2,19.5c-0.4,0.6-4.1,4.3-5.5,4
		c-7.4-1.7,11.3-55.3,14-58.5c6.4-1.1,10.8-0.6,12.3-0.9c4-1.1,4.9-7,1.7-9.4c-2.3-1.9-8.3-0.8-10-0.6c3-7.9,4.9-12.3,5.7-14
		c1.7-3.6,4.7-13.4-3.2-12.6c-6.4,0.6-10.6,16.2-12.6,22.4c-0.4,1.3-1.3,4.5-2.3,4.9c-0.5,0.3-2.9,0.5-5.9,0.7
		c0.1-0.8,0.2-1.6,0.2-2.4c0-13.4-14.7-17.7-26.8-17.7c-21.9,1.9-47.9,18.1-47.9,38.1c0,20.2,40.6,23.6,40.6,44.9
		c0,7.5-15.7,12.6-21.5,12.6c-6,0-12.4-2.6-12.4-7c0-7.9,7.4-7.4,7.4-14c0-3-2.1-5.5-5.5-5.5c-4,0-12.8,11.5-12.8,19.4
		c0,13.4,13.4,17.9,24,17.9c17.2,0,31.9-12.6,31.9-24c-0.6-27.4-40.7-32.6-40.7-44.9c0-10.8,19.8-27.2,40.2-27.2
		c5.8,0,11.7,2.5,12.8,7.2c0,0.9-0.7,2.2-0.8,3.6c-1.1,0.2-2,0.5-2.6,0.8c-3.8,1.9-4,8.5,0.8,10c1.9,0.4,7.5-0.8,15.1-1.1
		c-4.9,12.6-14.7,40.4-13.4,54.5c0.8,9.4,10.4,17.4,19.8,11.5c2.4-1.4,5.3-4.6,8.4-8.6c1.8,4.5,5.4,7.3,9.9,7.3
		c9.4,0,18.5-11.7,23.8-16.2c-0.8,2.3-1.1,4.5-1.1,6.6c0,6.8,3.6,12.1,9.6,12.1c8.5,0,15.7-8.1,21.9-14.9c0.1-0.1,0.3-0.3,0.4-0.5
		c0,1,0,1.9,0.1,2.8c0.8,9.4,10.4,17.4,19.8,11.5c2.8-1.7,6.3-5.7,9.9-10.6c3.5,9,11.3,16.8,21.4,16.8c8.7,0,14.1-5.5,16.4-13
		c9.8-0.4,19.1-4.9,26.8-13c5.8-6,8.9-12.3,8.9-12.6C519.9,114.6,518.8,111.3,516.1,110.2z M383.5,116.8c-5.5,5.7-17.4,20-22.4,20
		c-0.6,0-0.8-0.8-0.8-1.7c0-7.5,4-15.7,6.8-20.4c3.6-5.8,9.8-13.4,18.7-13.4c1.7,0,4.1,3.2,4.1,6.6
		C389.9,110.4,385.8,114.6,383.5,116.8z"/>
	<g>
		<path d="M261.9,167.3H258v10h3.5v2.5H258v18h-2.8v-18h-2.4v-2.5h2.4v-10.1c0-1.6,0.8-2.4,2.4-2.4h4.3V167.3z"/>
		<path d="M276.2,195.3c0,1.6-0.8,2.4-2.4,2.4h-7c-1.6,0-2.4-0.8-2.4-2.4v-15.7c0-1.6,0.8-2.4,2.4-2.4h7c1.6,0,2.4,0.8,2.4,2.4
			V195.3z M273.4,195.3v-15.5h-6.2v15.5H273.4z"/>
		<path d="M291.4,184h-2.8v-4.2l-5.1,0.2v17.8h-2.8v-20.4h2.8v0.6c0.9-0.1,1.9-0.3,2.8-0.4c1.1-0.2,2.1-0.3,2.8-0.3
			c1.5,0,2.3,0.8,2.3,2.3V184z"/>
		<path d="M317.4,195.4c0,0.7-0.2,1.2-0.7,1.7c-0.4,0.4-1,0.7-1.7,0.7h-8.9c-0.7,0-1.2-0.2-1.7-0.7c-0.4-0.4-0.7-1-0.7-1.7v-30.5
			h2.9v30.3h7.8v-30.3h2.9V195.4z"/>
		<path d="M334,193.3c0,1.3-0.4,2.3-1.2,3.1c-0.8,0.8-1.9,1.2-3.1,1.2h-4.6v7.7h-2.8v-28.2h2.8v0.6c1.1-0.1,2.2-0.3,3.3-0.4
			c1.4-0.2,2.5-0.3,3.3-0.3c1.6,0,2.3,0.8,2.3,2.3V193.3z M331.2,192.9v-13.1l-6.2,0.2v15.3h3.9
			C330.4,195.3,331.2,194.5,331.2,192.9z"/>
		<path d="M350.1,197.7h-2.8v-0.6c-3,0.5-4.7,0.7-5,0.7c-1.2,0-2.1-0.4-2.9-1.2c-0.7-0.8-1.1-1.8-1.1-3v-11.9c0-1.3,0.4-2.3,1.2-3.1
			c0.8-0.8,1.9-1.2,3.1-1.2h4.6v-12.4h2.8V197.7z M347.3,195.2v-15.4h-3.9c-1.5,0-2.3,0.8-2.3,2.4V193c0,1.6,0.8,2.4,2.3,2.4
			C343.8,195.4,345.1,195.3,347.3,195.2z"/>
		<path d="M366.2,197.7h-2.8v-0.6c-1.1,0.2-2.2,0.3-3.3,0.4c-1.4,0.2-2.5,0.3-3.3,0.3c-1.5,0-2.3-0.8-2.3-2.3v-7.5
			c0-1.6,0.8-2.4,2.4-2.4h6.6v-6.2h-6v3.5h-2.7v-3.4c0-1.6,0.8-2.4,2.4-2.4h6.7c1.6,0,2.4,0.8,2.4,2.4V197.7z M363.5,195.2V188h-6.2
			v7.3L363.5,195.2z"/>
		<path d="M378.2,197.7h-4c-1.6,0-2.4-0.8-2.4-2.4v-15.6h-2.5v-2.5h2.5v-6.4h2.8v6.4h3.6v2.5h-3.6v15.5h3.6V197.7z"/>
		<path d="M393.1,195.3c0,1.6-0.8,2.4-2.4,2.4h-6.7c-1.6,0-2.4-0.8-2.4-2.4v-15.7c0-1.6,0.8-2.4,2.4-2.4h6.7c1.6,0,2.4,0.8,2.4,2.4
			v7.3l-0.9,1h-7.8v7.4h6v-3.7h2.7V195.3z M390.4,185.8v-6.2h-6v6.2H390.4z"/>
		<path d="M422.8,197.7H420v-20.8c0-0.3,0.1-1.2,0.3-2.6l-5.4,20.3h-0.6l-5.4-20.3c0.2,1.4,0.3,2.3,0.3,2.6v20.8h-2.8v-32.9h2.7
			l5.3,21.4c0,0.1,0.1,0.4,0.1,0.9c0-0.2,0-0.5,0.1-0.9l5.3-21.4h2.7V197.7z"/>
		<path d="M439.2,197.7h-2.8v-0.6c-1.1,0.2-2.2,0.3-3.3,0.4c-1.4,0.2-2.5,0.3-3.3,0.3c-1.5,0-2.3-0.8-2.3-2.3v-7.5
			c0-1.6,0.8-2.4,2.4-2.4h6.6v-6.2h-6v3.5h-2.7v-3.4c0-1.6,0.8-2.4,2.4-2.4h6.7c1.6,0,2.4,0.8,2.4,2.4V197.7z M436.5,195.2V188h-6.2
			v7.3L436.5,195.2z"/>
		<path d="M455.5,197.7h-2.8v-17.9l-6.2,0.2v17.8h-2.8v-20.4h2.8v0.6c1.1-0.1,2.2-0.3,3.3-0.4c1.3-0.2,2.4-0.3,3.3-0.3
			c1.6,0,2.3,0.8,2.3,2.3V197.7z"/>
		<path d="M471.6,197.7h-2.8v-0.6c-1.1,0.2-2.2,0.3-3.3,0.4c-1.4,0.2-2.5,0.3-3.3,0.3c-1.5,0-2.3-0.8-2.3-2.3v-7.5
			c0-1.6,0.8-2.4,2.4-2.4h6.6v-6.2h-6v3.5h-2.7v-3.4c0-1.6,0.8-2.4,2.4-2.4h6.7c1.6,0,2.4,0.8,2.4,2.4V197.7z M468.9,195.2V188h-6.2
			v7.3L468.9,195.2z"/>
		<path d="M487.8,203.1c0,1.6-0.8,2.4-2.4,2.4h-6.6c-1.6,0-2.4-1-2.4-3c0-0.2,0-0.6,0-1.1c0-0.5,0-0.8,0-1h2.8v2.7h5.8v-5.4h-4.6
			c-1.2,0-2.3-0.4-3.1-1.2c-0.8-0.8-1.2-1.9-1.2-3.1v-11.9c0-1.2,0.4-2.2,1.1-3c0.7-0.8,1.7-1.2,2.9-1.2c0.3,0,2,0.2,5,0.7v-0.6h2.8
			V203.1z M485,195.3v-15.4c-2.2-0.1-3.5-0.2-3.9-0.2c-1.5,0-2.3,0.8-2.3,2.4v10.9c0,1.6,0.8,2.4,2.3,2.4H485z"/>
		<path d="M503.8,195.3c0,1.6-0.8,2.4-2.4,2.4h-6.7c-1.6,0-2.4-0.8-2.4-2.4v-15.7c0-1.6,0.8-2.4,2.4-2.4h6.7c1.6,0,2.4,0.8,2.4,2.4
			v7.3l-0.9,1h-7.8v7.4h6v-3.7h2.7V195.3z M501.1,185.8v-6.2h-6v6.2H501.1z"/>
		<path d="M519.1,184h-2.8v-4.2l-5.1,0.2v17.8h-2.8v-20.4h2.8v0.6c0.9-0.1,1.9-0.3,2.8-0.4c1.1-0.2,2.1-0.3,2.8-0.3
			c1.5,0,2.3,0.8,2.3,2.3V184z"/>
	</g>
</g>
</svg>
