<?xml version="1.0" encoding="utf-8"?>
<svg version="1.1" id="Livello_1" xmlns="http://www.w3.org/2000/svg" xmlns:xlink="http://www.w3.org/1999/xlink" x="0px" y="0px"
	 viewBox="0 0 772 250" style="enable-background:new 0 0 772 250;" xml:space="preserve">
<style type="text/css">
	.st0{fill:#D9D9D9;}
	.st1{fill:#357EC0;}
	.st2{fill:#FF6635;}
	.st3{fill:#FFFFFF;}
	.st4{fill:none;}
	.st5{font-family:'Audiowide-Regular';}
	.st6{font-size:75px;}
	.st7{font-size:43px;}
	.st8{font-family:'SourceSansPro-Semibold';}
	.st9{font-size:25px;}
</style>
<rect class="st0" width="772" height="250"/>
<g>
	<circle class="st1" cx="643.8" cy="125" r="98"/>
	<path class="st2" d="M545.7,125c0,23.2,8.1,44.5,21.6,61.3h133.1v-111H559.3C550.7,89.8,545.7,106.8,545.7,125z"/>
	<path class="st3" d="M651.3,211.4h-5.8h-23.2V194h81.2c3.2,0,5.8-2.6,5.8-5.8v-116c0-3.2-2.6-5.8-5.8-5.8l0,0H565.2
		c-2.7,3.7-5.2,7.6-7.5,11.6h140v104.5H564.3c3,4.1,6.3,8,9.9,11.6h36.5v17.4h-13.2c13.8,7.4,29.6,11.6,46.3,11.6
		c2.5,0,5-0.1,7.5-0.3V211.4z"/>
	<path class="st3" d="M567.1,161.3l0.1-0.1l38.3-27.8l6.8,21.4c0.6,2,2.7,3,4.7,2.4c0.5-0.2,1-0.5,1.5-0.9l41.5-40.2l3.4,3.2
		c1.1,1,2.7,0.9,3.7-0.1c0.3-0.3,0.5-0.7,0.6-1.2l2-8.3l2-8.3c0.3-1.4-0.5-2.8-2-3.2c0,0,0,0-0.1,0l0,0c-0.1,0-0.2,0-0.3,0
		c-0.3,0-0.7,0-1,0.1l-8.2,2.5l-8.2,2.5c-1.4,0.4-2.2,1.9-1.8,3.3c0.1,0.4,0.4,0.8,0.7,1.2l3.6,3.4l-37,35.8l-6.5-20.6
		c-0.6-2-2.7-3-4.7-2.4c-0.4,0.1-0.7,0.3-1.1,0.5l-42.4,30.8c-1.7,1.2-2.1,3.5-0.9,5.2C563.1,162.1,565.4,162.5,567.1,161.3z"/>
</g>
<rect x="1" y="29" class="st4" width="544.8" height="123"/>
<text transform="matrix(1 0 0 1 154.9854 85.3232)"><tspan x="0" y="0" class="st2 st5 st6">Stats</tspan><tspan x="-126.2" y="51.6" class="st2 st5 st7">for Update </tspan><tspan x="154.3" y="51.6" class="st1 st5 st7">Manager</tspan></text>
<rect x="1" y="155" class="st4" width="547" height="62.5"/>
<text transform="matrix(1 0 0 1 99.5771 172.6547)" class="st8 st9">Count your plugins installations.</text>
</svg>
