<?xml version="1.0" encoding="utf-8"?>
<!-- Generator: Adobe Illustrator 21.0.0, SVG Export Plug-In . SVG Version: 6.00 Build 0)  -->
<svg version="1.1" id="Livello_1" xmlns="http://www.w3.org/2000/svg" xmlns:xlink="http://www.w3.org/1999/xlink" x="0px" y="0px"
	 viewBox="0 0 772 250" style="enable-background:new 0 0 772 250;" xml:space="preserve">
<style type="text/css">
	.st0{fill:#D9D9D9;}
	.st1{fill:#FDC300;}
	.st2{fill:#F18700;}
	.st3{fill:#FFFFFF;}
</style>
<rect class="st0" width="772" height="250"/>
<g>
	<circle class="st1" cx="643.8" cy="125" r="98"/>
	<path class="st2" d="M545.7,125c0,23.2,8.1,44.5,21.6,61.3h133.1v-111H559.3C550.7,89.8,545.7,106.8,545.7,125z"/>
	<path class="st3" d="M651.3,211.4h-5.8h-23.2V194h81.2c3.2,0,5.8-2.6,5.8-5.8v-116c0-3.2-2.6-5.8-5.8-5.8l0,0H565.2
		c-2.7,3.7-5.2,7.6-7.5,11.6h140v104.5H564.3c3,4.1,6.3,8,9.9,11.6h36.5v17.4h-13.2c13.8,7.4,29.6,11.6,46.3,11.6
		c2.5,0,5-0.1,7.5-0.3V211.4z"/>
	<path class="st3" d="M567.1,161.3l0.1-0.1l38.3-27.8l6.8,21.4c0.6,2,2.7,3,4.7,2.4c0.5-0.2,1-0.5,1.5-0.9l41.5-40.2l3.4,3.2
		c1.1,1,2.7,0.9,3.7-0.1c0.3-0.3,0.5-0.7,0.6-1.2l2-8.3l2-8.3c0.3-1.4-0.5-2.8-2-3.2c0,0,0,0-0.1,0l0,0c-0.1,0-0.2,0-0.3,0
		c-0.3,0-0.7,0-1,0.1l-8.2,2.5l-8.2,2.5c-1.4,0.4-2.2,1.9-1.8,3.3c0.1,0.4,0.4,0.8,0.7,1.2l3.6,3.4l-37,35.8l-6.5-20.6
		c-0.6-2-2.7-3-4.7-2.4c-0.4,0.1-0.7,0.3-1.1,0.5l-42.4,30.8c-1.7,1.2-2.1,3.5-0.9,5.2C563.1,162.1,565.4,162.5,567.1,161.3z"/>
</g>
<g>
	<path d="M322.2,89.1c-2.9-1.5-6.5-0.2-7.8,2.9c-0.2,0.2-10,20.3-29,22.2c-0.7-9.3-4.9-18.3-4.9-27.3c0-8,4.4-18.1,10.4-18.1
		c13.4,0,1.7,12.4,11.7,12.4c4.1,0,6.5-3.4,6.5-8.2c0-9.1-4.9-16.4-19-16.4c-12.1,0-21.9,16.6-21.9,30c0,11.9,4.7,20.3,4.7,31.5
		c0,6.1-1.7,10.5-7.3,10.5c-8.8,0-14.4-11.2-14.4-17.3c0-3,0.7-5.8,1.7-8.4c0.8-1.4,1.5-2.6,2.1-3.9c0.8-1,1.6-2.1,2.4-2.9
		c2.2-1.9,7.1-3.7,7.1-8.6c0-3.4-3.2-5.8-6.3-5.8c-3.2,0-6.8,2.2-10,5.6c-1.5,1.1-2.6,2.9-3.6,4.6c-1.3,1.9-2.4,4.1-3.4,6.3
		c-4.9,8.5-8.5,12.9-14.4,21.1c-0.5,0.7-4.7,4.9-6.3,4.6c-8.5-1.9,12.9-63.4,16-67c7.3-1.3,12.4-0.7,14.1-1c4.6-1.3,5.6-8,1.9-10.8
		c-2.6-2.2-9.5-0.9-11.5-0.7c3.4-9.1,5.6-14.1,6.5-16c1.9-4.1,5.4-15.4-3.7-14.4c-7.3,0.7-12.1,18.6-14.4,25.7
		c-0.5,1.5-1.5,5.2-2.6,5.6c-1.5,0.9-18.6,0.9-22.9,3c-4.4,2.2-4.6,9.7,0.9,11.5c2.2,0.5,8.6-0.9,17.3-1.3
		c-3,7.7-7.6,20.2-10.9,32.7c-0.9,1-1.7,2.1-2.5,3.2c-7.1,10.2-18.1,22.2-26.1,27.6c2.2-14.9,8.5-27,15.4-37.6
		c2.2-3.2,6.6-8.6,6.6-12.1c0-3.9-2.6-6.3-5.8-6.3c-5.8,0-8.5,10-11.7,10c-0.2,0-1.5-1.9-1.7-2.6c-3.2-4.4-8.5-6.5-14.1-6.5
		c-13.5,0-28.4,13.5-35.6,30.2c-5.3,9.3-8.8,13.7-15.1,22.3c-0.5,0.7-4.7,4.9-6.3,4.6c-8.5-1.9,12.9-63.4,16-67
		c7.3-1.3,12.4-0.7,14.1-1c4.6-1.3,5.6-8,1.9-10.8c-2.6-2.2-9.5-0.9-11.5-0.7c3.4-9.1,5.6-14.1,6.5-16c1.9-4.1,5.4-15.4-3.7-14.4
		c-7.3,0.7-12.1,18.6-14.4,25.7c-0.5,1.5-1.5,5.2-2.6,5.6c-0.6,0.3-3.3,0.6-6.8,0.8c0.1-0.9,0.2-1.8,0.2-2.7
		c0-15.4-16.8-20.3-30.7-20.3C58.4,25,28.6,43.6,28.6,66.5c0,23.1,46.5,27,46.5,51.4c0,8.6-18,14.4-24.6,14.4c-6.9,0-14.2-3-14.2-8
		c0-9.1,8.5-8.5,8.5-16c0-3.4-2.4-6.3-6.3-6.3c-4.6,0-14.7,13.2-14.7,22.2c0,15.4,15.4,20.5,27.5,20.5c19.7,0,36.5-14.4,36.5-27.5
		c-0.7-31.4-46.6-37.3-46.6-51.4c0-12.4,22.7-31.2,46.1-31.2c6.6,0,13.4,2.9,14.7,8.2c0,1-0.8,2.5-0.9,4.1c-1.3,0.2-2.3,0.6-3,0.9
		c-4.4,2.2-4.6,9.7,0.9,11.5c2.2,0.5,8.6-0.9,17.3-1.3c-5.6,14.4-16.8,46.3-15.4,62.4c0.9,10.8,11.9,19.9,22.7,13.2
		c2.7-1.6,6.1-5.3,9.6-9.9c2.1,5.2,6.2,8.4,11.3,8.4c10.8,0,21.2-13.4,27.3-18.6c-0.9,2.6-1.3,5.2-1.3,7.6c0,7.8,4.1,13.9,11,13.9
		c9.7,0,18-9.3,25.1-17.1c0.1-0.1,0.3-0.3,0.5-0.6c0,1.1,0,2.2,0.1,3.2c0.9,10.8,11.9,19.9,22.7,13.2c3.2-1.9,7.2-6.5,11.3-12.1
		c4,10.3,12.9,19.2,24.5,19.2c10,0,16.2-6.3,18.8-14.9c11.2-0.5,21.9-5.6,30.7-14.9c6.6-6.9,10.2-14.1,10.2-14.4
		C326.6,94.1,325.3,90.3,322.2,89.1z M170.3,96.6c-6.3,6.5-19.9,22.9-25.7,22.9c-0.7,0-0.9-0.9-0.9-1.9c0-8.6,4.6-18,7.8-23.4
		c4.1-6.6,11.2-15.4,21.4-15.4c1.9,0,4.7,3.7,4.7,7.6C177.6,89.3,172.9,94.1,170.3,96.6z"/>
	<g>
		<path d="M352.7,16.6h-4.5v11.5h4v2.9h-4v20.6H345V30.9h-2.7v-2.9h2.7V16.5c0-1.8,0.9-2.7,2.7-2.7h4.9V16.6z"/>
		<path d="M369.1,48.7c0,1.8-0.9,2.7-2.7,2.7h-8c-1.8,0-2.7-0.9-2.7-2.7v-18c0-1.8,0.9-2.7,2.7-2.7h8c1.8,0,2.7,0.9,2.7,2.7V48.7z
			 M365.9,48.7V30.9h-7.1v17.8H365.9z"/>
		<path d="M386.5,35.7h-3.2v-4.8l-5.8,0.2v20.4h-3.2V28.2h3.2v0.7c1-0.1,2.2-0.3,3.2-0.5c1.3-0.2,2.4-0.3,3.2-0.3
			c1.7,0,2.6,0.9,2.6,2.6L386.5,35.7L386.5,35.7z"/>
	</g>
	<g>
		<path d="M358,91c0,0.8-0.2,1.4-0.8,1.9c-0.5,0.5-1.1,0.8-1.9,0.8H345c-0.8,0-1.4-0.2-1.9-0.8c-0.5-0.5-0.8-1.1-0.8-1.9V56.1h3.3
			v34.7h8.9V56.1h3.3V91H358z"/>
		<path d="M377,88.6c0,1.5-0.5,2.6-1.4,3.6c-0.9,0.9-2.2,1.4-3.6,1.4h-5.3v8.8h-3.2V70.1h3.2v0.7c1.3-0.1,2.5-0.3,3.8-0.5
			c1.6-0.2,2.9-0.3,3.8-0.3c1.8,0,2.6,0.9,2.6,2.6L377,88.6L377,88.6z M373.8,88.2v-15l-7.1,0.2v17.5h4.5
			C372.8,90.9,373.8,90,373.8,88.2z"/>
		<path d="M395.4,93.7h-3.2V93c-3.4,0.6-5.4,0.8-5.7,0.8c-1.4,0-2.4-0.5-3.3-1.4c-0.8-0.9-1.3-2.1-1.3-3.4V75.4
			c0-1.5,0.5-2.6,1.4-3.6c0.9-0.9,2.2-1.4,3.6-1.4h5.3V56.2h3.2v37.5H395.4z M392.2,90.8V73.2h-4.5c-1.7,0-2.6,0.9-2.6,2.7v12.4
			c0,1.8,0.9,2.7,2.6,2.7C388.2,91,389.7,90.9,392.2,90.8z"/>
		<path d="M413.9,93.7h-3.2V93c-1.3,0.2-2.5,0.3-3.8,0.5c-1.6,0.2-2.9,0.3-3.8,0.3c-1.7,0-2.6-0.9-2.6-2.6v-8.6
			c0-1.8,0.9-2.7,2.7-2.7h7.6v-7.1h-6.9v4h-3.1v-3.9c0-1.8,0.9-2.7,2.7-2.7h7.7c1.8,0,2.7,0.9,2.7,2.7v20.9H413.9z M410.8,90.8v-8.2
			h-7.1v8.4L410.8,90.8z"/>
		<path d="M427.6,93.7H423c-1.8,0-2.7-0.9-2.7-2.7V73.1h-2.9v-2.9h2.9v-7.3h3.2v7.3h4.1v2.9h-4.1v17.8h4.1V93.7z"/>
		<path d="M444.7,90.9c0,1.8-0.9,2.7-2.7,2.7h-7.7c-1.8,0-2.7-0.9-2.7-2.7v-18c0-1.8,0.9-2.7,2.7-2.7h7.7c1.8,0,2.7,0.9,2.7,2.7v8.4
			l-1,1.1h-8.9v8.5h6.9v-4.2h3.1L444.7,90.9L444.7,90.9z M441.6,80.1v-7.1h-6.9v7.1H441.6z"/>
	</g>
	<g>
		<path d="M361,135.8h-3.2V112c0-0.3,0.1-1.4,0.3-3l-6.2,23.3h-0.7l-6.2-23.3c0.2,1.6,0.3,2.6,0.3,3v23.8h-3.2V98.1h3.1l6.1,24.5
			c0,0.1,0.1,0.5,0.1,1c0-0.2,0-0.6,0.1-1l6.1-24.5h3.1v37.7H361z"/>
		<path d="M379.8,135.8h-3.2v-0.7c-1.3,0.2-2.5,0.3-3.8,0.5c-1.6,0.2-2.9,0.3-3.8,0.3c-1.7,0-2.6-0.9-2.6-2.6v-8.6
			c0-1.8,0.9-2.7,2.7-2.7h7.6v-7.1h-6.9v4h-3.1V115c0-1.8,0.9-2.7,2.7-2.7h7.7c1.8,0,2.7,0.9,2.7,2.7v20.9H379.8z M376.7,132.9v-8.2
			h-7.1v8.4L376.7,132.9z"/>
		<path d="M398.5,135.8h-3.2v-20.5l-7.1,0.2v20.4H385v-23.4h3.2v0.7c1.3-0.1,2.5-0.3,3.8-0.5c1.5-0.2,2.7-0.3,3.8-0.3
			c1.8,0,2.6,0.9,2.6,2.6v20.7H398.5z"/>
		<path d="M417,135.8h-3.2v-0.7c-1.3,0.2-2.5,0.3-3.8,0.5c-1.6,0.2-2.9,0.3-3.8,0.3c-1.7,0-2.6-0.9-2.6-2.6v-8.6
			c0-1.8,0.9-2.7,2.7-2.7h7.6v-7.1H407v4h-3.1V115c0-1.8,0.9-2.7,2.7-2.7h7.7c1.8,0,2.7,0.9,2.7,2.7v20.9H417z M413.9,132.9v-8.2
			h-7.1v8.4L413.9,132.9z"/>
		<path d="M435.5,142c0,1.8-0.9,2.7-2.7,2.7h-7.6c-1.8,0-2.7-1.1-2.7-3.4c0-0.2,0-0.7,0-1.3s0-0.9,0-1.1h3.2v3.1h6.6v-6.2H427
			c-1.4,0-2.6-0.5-3.6-1.4c-0.9-0.9-1.4-2.2-1.4-3.6v-13.6c0-1.4,0.5-2.5,1.3-3.4s1.9-1.4,3.3-1.4c0.3,0,2.3,0.2,5.7,0.8v-0.7h3.2
			V142H435.5z M432.3,133.1v-17.6c-2.5-0.1-4-0.2-4.5-0.2c-1.7,0-2.6,0.9-2.6,2.7v12.5c0,1.8,0.9,2.7,2.6,2.7h4.5V133.1z"/>
		<path d="M453.8,133.1c0,1.8-0.9,2.7-2.7,2.7h-7.7c-1.8,0-2.7-0.9-2.7-2.7v-18c0-1.8,0.9-2.7,2.7-2.7h7.7c1.8,0,2.7,0.9,2.7,2.7
			v8.4l-1,1.1h-8.9v8.5h6.9v-4.2h3.1L453.8,133.1L453.8,133.1z M450.8,122.2v-7.1h-6.9v7.1H450.8z"/>
		<path d="M471.4,120.1h-3.2v-4.8l-5.8,0.2v20.4h-3.2v-23.4h3.2v0.7c1-0.1,2.2-0.3,3.2-0.5c1.3-0.2,2.4-0.3,3.2-0.3
			c1.7,0,2.6,0.9,2.6,2.6V120.1z"/>
	</g>
</g>
</svg>
