<?xml version="1.0" encoding="utf-8"?>
<!-- Generator: Adobe Illustrator 21.0.0, SVG Export Plug-In . SVG Version: 6.00 Build 0)  -->
<svg version="1.1" id="Livello_1" xmlns="http://www.w3.org/2000/svg" xmlns:xlink="http://www.w3.org/1999/xlink" x="0px" y="0px"
	 viewBox="0 0 256 256" style="enable-background:new 0 0 256 256;" xml:space="preserve">
<style type="text/css">
	.st0{fill:#FDC300;}
	.st1{fill:#F18700;}
	.st2{fill:#FFFFFF;}
</style>
<circle class="st0" cx="128" cy="128" r="117.5"/>
<path class="st1" d="M10.5,128c0,27.8,9.7,53.4,25.8,73.5h159.6V68.4H26.7C16.4,85.9,10.5,106.2,10.5,128z"/>
<path class="st2" d="M137,231.6h-7h-27.8v-20.9h97.4c3.8,0,7-3.1,7-7V64.7c0-3.8-3.1-7-7-7c0,0,0,0,0,0H33.8
	c-3.3,4.4-6.3,9.1-8.9,13.9h167.8v125.2H32.8c3.6,4.9,7.5,9.6,11.8,13.9h43.8v20.9H72.5c16.5,8.9,35.4,13.9,55.5,13.9
	c3,0,6-0.1,9-0.3V231.6z"/>
<path class="st2" d="M36.1,171.5c0,0,0.1-0.1,0.1-0.1l45.9-33.3l8.1,25.7c0.7,2.3,3.2,3.6,5.6,2.9c0.7-0.2,1.3-0.6,1.8-1l49.8-48.2
	l4.1,3.9c1.3,1.2,3.3,1.1,4.5-0.1c0.4-0.4,0.6-0.9,0.8-1.4l2.3-9.9l2.3-9.9c0.4-1.7-0.7-3.4-2.3-3.8c0,0-0.1,0-0.1,0l0,0
	c-0.1,0-0.2,0-0.3,0c-0.4,0-0.8,0-1.2,0.1l-9.8,2.9l-9.8,2.9c-1.7,0.5-2.6,2.3-2.1,3.9c0.2,0.5,0.5,1,0.9,1.4l4.3,4l-44.3,42.9
	l-7.8-24.7c-0.7-2.3-3.2-3.6-5.6-2.9c-0.5,0.1-0.9,0.4-1.3,0.6L31,164.2c-2,1.4-2.5,4.2-1.1,6.2C31.3,172.4,34.1,172.9,36.1,171.5z"
	/>
</svg>
